<?xml version="1.0" encoding="utf-8"?>
<!-- Generator: Adobe Illustrator 16.0.0, SVG Export Plug-In . SVG Version: 6.00 Build 0)  -->
<!DOCTYPE svg PUBLIC "-//W3C//DTD SVG 1.1//EN" "http://www.w3.org/Graphics/SVG/1.1/DTD/svg11.dtd">
<svg version="1.1" id="Layer_1" xmlns="http://www.w3.org/2000/svg" xmlns:xlink="http://www.w3.org/1999/xlink" x="0px" y="0px"
	 width="1024px" height="1024px" viewBox="0 0 1024 1024" enable-background="new 0 0 1024 1024" xml:space="preserve">
<path fill="#4C87D9" stroke="#000000" stroke-width="20" stroke-miterlimit="10" d="M1014,812.903
	C1014,921.231,932.145,1014,823.846,1014H212.032C103.733,1014,10,921.231,10,812.903V200.929C10,92.601,103.733,10,212.032,10
	h611.813C932.145,10,1014,92.601,1014,200.929V812.903z"/>
<path fill="#4CD964" stroke="#000000" stroke-width="10" stroke-miterlimit="10" d="M932,834.672C932,880.14,896.746,917,853,917
	l0,0c-43.746,0-79-36.86-79-82.328V189.327C774,143.859,809.254,107,853,107l0,0c43.746,0,79,36.859,79,82.327V834.672z"/>
<path fill="#4CD964" stroke="#000000" stroke-width="10" stroke-miterlimit="10" d="M591,834.672C591,880.14,555.746,917,512,917
	l0,0c-43.746,0-79-36.86-79-82.328V189.327C433,143.859,468.254,107,512,107l0,0c43.746,0,79,36.859,79,82.327V834.672z"/>
<path fill="#FF9500" stroke="#000000" stroke-width="10" stroke-miterlimit="10" d="M250,838.5c0,43.354-35.369,78.5-79,78.5l0,0
	c-43.631,0-79-35.146-79-78.5v-248c0-43.354,35.369-78.5,79-78.5l0,0c43.631,0,79,35.146,79,78.5V838.5z"/>
</svg>
